<svg width="30" height="32" xmlns="http://www.w3.org/2000/svg">
 <title>66</title>

 <g>
  <title>background</title>
  <rect fill="none" id="canvas_background" height="402" width="582" y="-1" x="-1"/>
 </g>
 <g>
  <title>Layer 1</title>
  <path id="svg_1" d="m14.277,1.509c-4.263,0.403 -7.732,2.215 -10.276,5.367c-5.868,7.27 -3.484,18.05 4.906,22.185c8.474,4.176 18.65,-0.881 20.549,-10.212c1.679,-8.252 -4.156,-16.273 -12.567,-17.274c-0.441,-0.052 -2.267,-0.099 -2.612,-0.066zm1.65,3.478c4.068,0.156 8.019,3.031 9.552,6.95c3.27,8.358 -4.197,16.935 -12.886,14.799c-4.556,-1.12 -8.075,-5.302 -8.331,-9.901c-0.012,-0.21 -0.029,-0.492 -0.038,-0.628c-0.159,-2.385 0.955,-5.413 2.752,-7.48c2.052,-2.36 5.589,-3.959 8.333,-3.767c0.07,0.005 0.347,0.017 0.617,0.028l0.001,-0.001z" fill="#deb887"/>
 </g>
</svg>