<?xml version="1.0" encoding="UTF-8"?>
<!DOCTYPE svg PUBLIC "-//W3C//DTD SVG 1.1//EN" "http://www.w3.org/Graphics/SVG/1.1/DTD/svg11.dtd">
<!-- Creator: CorelDRAW 2020 (64-Bit) -->
<svg xmlns="http://www.w3.org/2000/svg" xml:space="preserve" width="15mm" height="15mm" version="1.1" style="shape-rendering:geometricPrecision; text-rendering:geometricPrecision; image-rendering:optimizeQuality; fill-rule:evenodd; clip-rule:evenodd"
viewBox="0 0 1500 1500"
 xmlns:xlink="http://www.w3.org/1999/xlink"
 xmlns:xodm="http://www.corel.com/coreldraw/odm/2003">
 <defs>
  <style type="text/css">
   <![CDATA[
    .fil0 {fill:burlywood}
   ]]>
  </style>
 </defs>
 <g id="__x0023_Layer_x0020_1">
  <metadata id="CorelCorpID_0Corel-Layer"/>
  <path class="fil0" d="M731.12 176.72c-317.31,0 -574.62,257.28 -574.62,574.68 0,253.87 164.64,469.26 393.01,545.26 28.74,5.27 39.23,-12.47 39.23,-27.7 0,-13.64 -0.5,-49.78 -0.78,-97.74 -159.85,34.73 -193.58,-77.03 -193.58,-77.03 -26.13,-66.39 -63.8,-84.06 -63.8,-84.06 -52.18,-35.66 3.94,-34.93 3.94,-34.93 57.67,4.06 88.02,59.22 88.02,59.22 51.27,87.81 134.5,62.46 167.25,47.75 5.22,-37.14 20.06,-62.46 36.48,-76.83 -127.61,-14.5 -261.76,-63.8 -261.76,-284.01 0,-62.74 22.39,-114.04 59.15,-154.21 -5.91,-14.53 -25.63,-72.95 5.64,-152.07 0,0 48.25,-15.45 158.02,58.91 45.84,-12.74 95,-19.12 143.87,-19.34 48.8,0.22 97.96,6.6 143.87,19.34 109.71,-74.36 157.87,-58.91 157.87,-58.91 31.35,79.12 11.63,137.54 5.72,152.07 36.83,40.17 59.07,91.47 59.07,154.21 0,220.76 -134.36,269.34 -262.38,283.56 20.63,17.74 39.01,52.82 39.01,106.42 0,76.83 -0.7,138.81 -0.7,157.65 0,15.36 10.35,33.24 39.51,27.63 228.15,-76.14 392.66,-291.39 392.66,-545.19 0,-317.4 -257.32,-574.68 -574.7,-574.68z"/>
 </g>
</svg>
