<svg width="557.389" height="557.389" xmlns="http://www.w3.org/2000/svg">

 <g>
  <title>background</title>
  <rect fill="none" id="canvas_background" height="402" width="582" y="-1" x="-1"/>
 </g>
 <g>
  <title>Layer 1</title>
  <g id="svg_1">
   <g id="svg_2">
    <path fill="#deb887" id="svg_3" d="m368.318,0l-179.257,0c-29.223,0 -62.529,34.721 -62.529,65.159l0,427.061c0,30.447 33.306,65.169 62.529,65.169l179.258,0c29.225,0 62.539,-34.722 62.539,-65.169l0,-427.061c-0.001,-30.438 -33.315,-65.159 -62.54,-65.159zm48.196,492.229c0,23.275 -26.125,50.825 -48.195,50.825l-179.258,0c-22.07,0 -48.186,-27.55 -48.186,-50.825l0,-427.07c0,-23.275 26.125,-50.815 48.186,-50.815l179.258,0c22.07,0 48.195,27.549 48.195,50.815l0,427.07z"/>
    <path fill="#deb887" id="svg_4" d="m289.15,477.341c-0.459,-0.354 -1.127,-0.277 -1.49,0.172c-0.363,0.469 -0.287,1.139 0.172,1.492c3.557,2.82 5.594,7.038 5.594,11.561c0,8.129 -6.598,14.736 -14.726,14.736c-8.119,0 -14.727,-6.607 -14.727,-14.736c0,-4.561 2.065,-8.797 5.671,-11.618c0.469,-0.354 0.555,-1.023 0.191,-1.473c-0.363,-0.469 -1.033,-0.564 -1.492,-0.191c-4.121,3.213 -6.493,8.071 -6.493,13.282c0,9.305 7.564,16.868 16.859,16.868c9.294,0 16.859,-7.563 16.859,-16.868c-0.019,-5.173 -2.343,-9.993 -6.418,-13.225z"/>
    <path fill="#deb887" id="svg_5" d="m278.69,491.627c0.593,0 1.062,-0.469 1.062,-1.062l0,-15.777c0,-0.594 -0.479,-1.062 -1.062,-1.062s-1.062,0.468 -1.062,1.062l0,15.777c0,0.593 0.479,1.062 1.062,1.062z"/>
    <path fill="#deb887" id="svg_6" d="m278.69,458.866c-18.063,0 -32.761,14.697 -32.761,32.761s14.697,32.762 32.761,32.762c18.064,0 32.761,-14.698 32.761,-32.762s-14.687,-32.761 -32.761,-32.761zm0,60.741c-15.425,0 -27.979,-12.546 -27.979,-27.98c0,-15.424 12.546,-27.979 27.979,-27.979c15.433,0 27.98,12.546 27.98,27.979c0,15.425 -12.547,27.98 -27.98,27.98z"/>
    <path fill="#deb887" id="svg_7" d="m361.053,87.927l-164.706,0c-12.527,0 -22.711,10.174 -22.711,22.711l0,304.804c0,12.518 10.184,22.711 22.711,22.711l164.706,0c12.525,0 22.711,-10.193 22.711,-22.711l0,-304.804c0,-12.527 -10.196,-22.711 -22.711,-22.711zm15.539,327.515c0,8.568 -6.973,15.539 -15.539,15.539l-164.706,0c-8.568,0 -15.539,-6.971 -15.539,-15.539l0,-304.804c0,-8.568 6.971,-15.539 15.539,-15.539l164.706,0c8.566,0 15.539,6.971 15.539,15.539l0,304.804z"/>
    <circle fill="#deb887" id="svg_8" r="5.977" cy="55.769" cx="233.02"/>
    <circle fill="#deb887" id="svg_9" r="5.977" cy="55.769" cx="272.723"/>
    <circle fill="#deb887" id="svg_10" r="5.977" cy="55.769" cx="312.426"/>
   </g>
  </g>
  <g id="svg_11"/>
  <g id="svg_12"/>
  <g id="svg_13"/>
  <g id="svg_14"/>
  <g id="svg_15"/>
  <g id="svg_16"/>
  <g id="svg_17"/>
  <g id="svg_18"/>
  <g id="svg_19"/>
  <g id="svg_20"/>
  <g id="svg_21"/>
  <g id="svg_22"/>
  <g id="svg_23"/>
  <g id="svg_24"/>
  <g id="svg_25"/>
 </g>
</svg>